<?xml version="1.0" standalone="no"?>
<!DOCTYPE svg PUBLIC "-//W3C//DTD SVG 1.1//EN" "http://www.w3.org/Graphics/SVG/1.1/DTD/svg11.dtd" >
<svg xmlns="http://www.w3.org/2000/svg">
<metadata>Generated by IcoMoon</metadata>
<defs>
<font id="jambojet-icons" horiz-adv-x="1024">
<font-face units-per-em="1024" ascent="960" descent="-64" />
<missing-glyph horiz-adv-x="1024" />
<glyph unicode="&#x20;" horiz-adv-x="512" d="" />
<glyph unicode="&#xe900;" glyph-name="arrow-single-left" d="M469.867 448l313.067-315.2c17.067-17.067 26.133-40 26.133-64s-9.067-46.933-26.133-64c-16.533-17.067-39.467-26.667-63.467-26.133-24 0-46.4 9.6-63.467 26.133l-378.133 379.2c-17.067 17.6-47.467 48.533-62.4 64 16.533 17.067 46.4 47.467 62.4 64l376.533 379.2c16.533 17.067 39.467 26.667 63.467 26.133 24 0 46.4-9.6 63.467-26.133 17.067-17.067 26.133-40 26.133-64s-9.067-46.933-26.133-64l-311.467-315.2z" />
<glyph unicode="&#xe901;" glyph-name="arrow-single-right" d="M554.133 448l-313.067-315.2c-17.067-17.067-26.133-40-26.133-64s9.067-46.933 26.133-64c16.533-17.067 39.467-26.667 63.467-26.133 24 0 46.4 9.6 63.467 26.133l378.133 379.2c17.6 17.6 47.467 48.533 62.4 64-16.533 17.067-46.4 47.467-62.4 64l-376.533 379.2c-17.067 17.067-40 26.667-63.467 26.133-24 0-46.4-9.6-63.467-26.133-17.067-17.067-26.133-40-26.133-64s9.067-46.933 26.133-64l311.467-315.2z" />
<glyph unicode="&#xe902;" glyph-name="arrow-single-down" d="M512 405.867l315.2 313.067c17.067 17.067 40 26.133 64 26.133s46.933-9.067 64-26.133c17.067-16.533 26.667-39.467 26.133-63.467 0-24-9.6-46.4-26.133-63.467l-379.2-378.133c-17.6-17.6-48.533-47.467-64-62.4-17.067 16.533-47.467 46.4-64 62.4l-379.2 376.533c-17.067 17.067-26.667 40-26.133 63.467 0 24 9.6 46.4 26.133 63.467 17.067 17.067 40 26.133 64 26.133s46.933-9.067 64-26.133l315.2-311.467z" />
<glyph unicode="&#xe903;" glyph-name="arrow-single-up" d="M512 490.133l-315.2-313.067c-17.067-17.067-40-26.133-64-26.133s-46.933 9.067-64 26.133c-17.067 16.533-26.667 39.467-26.133 63.467 0 24 9.6 46.4 26.133 63.467l379.2 378.133c17.6 17.067 48.533 47.467 64 62.4 17.067-16.533 47.467-46.4 64-62.4l379.2-376.533c17.067-16.533 26.667-39.467 26.133-63.467 0-24-9.6-46.4-26.133-63.467-17.067-17.067-40-26.133-64-26.133s-46.933 9.067-64 26.133l-315.2 311.467z" />
<glyph unicode="&#xe904;" glyph-name="arrow-triangle-left" d="M258.133 469.333l467.733 440c11.733 11.2 30.4 10.667 41.6-1.067 5.333-5.333 8-12.8 8-20.267v-880c0-16-13.333-29.333-29.333-29.333-7.467 0-14.4 2.667-20.267 8l-467.733 440c-11.733 11.2-12.267 29.867-1.067 41.6 0 0 0.533 0.533 1.067 1.067z" />
<glyph unicode="&#xe905;" glyph-name="arrow-triangle-right" d="M765.867 426.667l-467.733-440c-11.733-11.2-30.4-10.667-41.6 1.067-5.333 5.333-8 12.8-8 20.267v880c0 16 13.333 29.333 29.333 29.333 7.467 0 14.4-2.667 20.267-8l467.733-440c11.733-11.2 12.267-29.867 1.067-41.6 0 0-0.533-0.533-1.067-1.067z" />
<glyph unicode="&#xe906;" glyph-name="arrow-triangle-down" d="M490.667 194.133l-440 467.733c-11.2 11.733-10.667 30.4 1.067 41.6 5.333 5.333 12.8 8 20.267 8h880c16 0 29.333-13.333 29.333-29.333 0-7.467-2.667-14.4-8-20.267l-440-467.733c-11.2-11.733-29.867-12.267-41.6-1.067 0 0-0.533 0.533-1.067 1.067z" />
<glyph unicode="&#xe907;" glyph-name="arrow-triangle-up" d="M490.667 701.867l-440-467.733c-11.2-11.733-10.667-30.4 1.067-41.6 5.333-5.333 12.8-8 20.267-8h880c16 0 29.333 13.333 29.333 29.333 0 7.467-2.667 14.4-8 20.267l-440 467.733c-11.2 11.733-29.867 12.267-41.6 1.067 0 0-0.533-0.533-1.067-1.067z" />
<glyph unicode="&#xe908;" glyph-name="plus" d="M444.267 515.733v269.867c0 37.333 30.4 67.733 67.733 67.733s67.733-30.4 67.733-67.733v-270.4h270.4c37.333 0 67.733-30.4 67.733-67.733s-30.4-67.733-67.733-67.733h-270.4v-270.4c0-37.333-30.4-67.733-67.733-67.733s-67.733 30.4-67.733 67.733v270.4h-269.867c-37.333 0-67.733 30.4-67.733 67.733s30.4 67.733 67.733 67.733v0h269.867z" />
<glyph unicode="&#xe909;" glyph-name="minus" d="M174.4 515.733h675.733c37.333 0 67.733-30.4 67.733-67.733s-30.4-67.733-67.733-67.733h-675.733c-37.333 0-67.733 30.4-67.733 67.733s30.4 67.733 67.733 67.733v0z" />
<glyph unicode="&#xe90a;" glyph-name="check" d="M372.267 338.667l406.4 392.533c32 30.933 83.2 29.867 114.133-2.133l2.133-2.133c30.933-32 29.867-83.2-2.133-114.133l-464.533-448.533c-32-30.933-83.2-29.867-114.133 2.133l-2.133 2.133-182.4 189.333c-30.933 32.533-29.333 83.2 3.2 114.133 32 30.4 82.133 29.333 113.067-2.133l126.4-131.2z" />
<glyph unicode="&#xe90b;" glyph-name="cross" d="M589.867 448l311.467-311.467c21.333-21.333 21.333-56.533 0-77.867s-56.533-21.333-77.867 0l-311.467 311.467-311.467-311.467c-21.333-21.333-56.533-21.333-77.867 0s-21.333 56.533 0 77.867l311.467 311.467-311.467 311.467c-21.333 21.333-21.333 56.533 0 77.867s56.533 21.333 77.867 0l311.467-311.467 311.467 311.467c21.333 21.333 56.533 21.333 77.867 0s21.333-56.533 0-77.867v0l-311.467-311.467z" />
<glyph unicode="&#xe90c;" glyph-name="calendar-month" d="M811.733 748.267h-100.267v50.133c0 27.733-22.4 50.133-50.133 50.133s-50.133-22.4-50.133-50.133v-50.133h-199.467v50.133c0 27.733-22.4 50.133-50.133 50.133s-50.133-22.4-50.133-50.133v-50.133h-99.2c-55.467-0.533-100.267-44.8-100.267-100.267v-500.267c0-55.467 44.8-99.733 100.267-100.267h600c55.467 0 99.733 44.8 100.267 100.267v500.267c-0.533 55.467-45.333 100.267-100.8 100.267zM811.733 148.267h-599.467v424.533h600v-424.533zM530.133 448v36.267c0 10.133 8 18.133 18.133 18.133h72.533c10.133 0 18.133-8 18.133-18.133v-36.267c0-10.133-8-18.133-18.133-18.133h-72.533c-10.133 0-18.133 8-18.133 18.133v0zM530.133 338.667v36.267c0 10.133 8 18.133 18.133 18.133h72.533c10.133 0 18.133-8 18.133-18.133v-36.267c0-10.133-8-18.133-18.133-18.133h-72.533c-10.133 0-18.133 8.533-18.133 18.133v0zM675.733 448v36.267c0 10.133 8 18.133 18.133 18.133v0h72.533c10.133 0 18.133-8 18.133-18.133v-36.267c0-10.133-8-18.133-18.133-18.133h-72.533c-10.133 0-18.133 8-18.133 18.133v0zM530.133 229.867v36.267c0 10.133 8 18.133 18.133 18.133h72.533c10.133 0 18.133-8 18.133-18.133v-36.267c0-10.133-8-18.133-18.133-18.133h-72.533c-10.133 0-18.133 8-18.133 18.133v0zM675.733 338.667v36.267c0 10.133 8 18.133 18.133 18.133v0h72.533c10.133 0 18.133-8 18.133-18.133v-36.267c0-10.133-8-18.133-18.133-18.133h-72.533c-10.133 0-18.133 8.533-18.133 18.133zM239.467 229.867v36.267c0 10.133 8 18.133 18.133 18.133h72.533c10.133 0 18.133-8 18.133-18.133v-36.267c0-10.133-8-18.133-18.133-18.133h-72.533c-10.133 0-18.133 8-18.133 18.133zM384.533 229.867v36.267c0 10.133 8 18.133 18.133 18.133h72.533c10.133 0 18.133-8 18.133-18.133v-36.267c0-10.133-8-18.133-18.133-18.133h-72.533c-9.6 0-18.133 8-18.133 18.133zM384.533 448v36.267c0 10.133 8 18.133 18.133 18.133h72.533c10.133 0 18.133-8 18.133-18.133v-36.267c0-10.133-8-18.133-18.133-18.133h-72.533c-9.6 0-18.133 8-18.133 18.133zM239.467 338.667v36.267c0 10.133 8 18.133 18.133 18.133h72.533c10.133 0 18.133-8 18.133-18.133v-36.267c0-10.133-8-18.133-18.133-18.133h-72.533c-10.133 0-18.133 8.533-18.133 18.133zM384.533 338.667v36.267c0 10.133 8 18.133 18.133 18.133h72.533c10.133 0 18.133-8 18.133-18.133v-36.267c0-10.133-8-18.133-18.133-18.133h-72.533c-9.6 0-18.133 8.533-18.133 18.133z" />
<glyph unicode="&#xe90d;" glyph-name="calendar" d="M812.267 747.733h-100.267v50.133c0 27.733-22.4 50.133-50.133 50.133s-50.133-22.4-50.133-50.133v-50.133h-200v50.133c0 27.733-22.4 50.133-50.133 50.133s-49.6-22.4-49.6-50.133v-50.133h-99.733c-55.467 0-100.267-44.267-100.267-99.733v-500.267c0-55.467 44.8-99.733 100.267-100.267h600c55.467 0 99.733 44.8 100.267 99.733v500.8c-0.533 55.467-45.333 99.733-100.267 99.733zM812.267 147.733h-600v425.067h600v-425.067zM566.4 229.867v90.667c0 10.133 8 18.133 18.133 18.133h145.6c10.133 0 18.133-8 18.133-18.133v-90.667c0-10.133-8-18.133-18.133-18.133h-145.6c-9.6 0-18.133 8-18.133 18.133 0 0 0 0 0 0z" />
<glyph unicode="&#xe90e;" glyph-name="airplane-right" d="M459.733 88.533c-46.4-69.333-58.133-81.067-104.533-81.067l69.333 370.667c-77.867 1.6-155.2 9.067-232 22.933l-32.533 7.467c-94.4-157.333-94.933-157.333-117.333-157.333l31.467 178.133-31.467 6.933v22.933l31.467 7.467-31.467 178.133c22.4 0 22.933 0 117.867-158.4l32.533 7.467c76.267 13.867 154.133 21.867 232 22.933l-69.333 370.667c46.4 0 58.133-11.733 104.533-81.067l159.467-296.533 141.867-4.8c92.8 0 220.267-11.733 220.267-58.133s-127.467-58.133-220.267-58.133l-141.867-4.8-160-295.467z" />
<glyph unicode="&#xe90f;" glyph-name="airplane-left" d="M404.8 385.067l-141.867 4.8c-92.8 0-220.267 11.733-220.267 58.133s127.467 58.133 220.267 58.133l141.867 4.8 159.467 296.533c46.4 69.333 58.133 81.067 104.533 81.067l-69.333-370.667c77.867-1.6 155.2-9.067 232-22.933l32.533-7.467c94.933 158.4 95.467 158.4 117.867 158.4l-31.467-178.133 31.467-7.467v-22.933l-31.467-7.467 31.467-178.133c-22.4 0-22.933 0-117.867 158.4l-32.533-7.467c-76.267-13.867-154.133-21.867-232-22.933l69.333-370.667c-46.4 0-58.133 11.733-104.533 81.067l-159.467 294.933z" />
<glyph unicode="&#xe910;" glyph-name="airplane_up" d="M748.267 176.533c16.533-82.133 16.533-98.133-16.533-131.2l-212.8 311.467c-56-53.867-116.267-103.467-180.267-147.733l-28.267-17.6c44.8-179.2 44.267-179.2 28.267-195.2l-104 148.267-27.2-17.067-16.533 16.533 17.067 27.2-148.267 104c16 16 16.533 16.533 195.2-28.267l17.6 28.267c44.267 64 93.333 124.267 147.733 180.267l-310.933 212.8c32.533 32.533 49.067 32.533 131.2 16.533l322.667-96.533 103.467 96c65.6 65.6 163.733 147.733 196.8 114.667s-49.067-131.2-114.667-196.8l-96.533-103.467 96-322.133z" />
<glyph unicode="&#xe911;" glyph-name="social-twitter" d="M881.6 594.667v-22.4c0-238.4-176-510.933-506.133-510.933-97.067-0.533-192 27.733-272.533 82.133 14.4-2.667 28.8-3.2 43.2-2.667 83.733 0 157.867 28.267 220.8 74.667-76.8 0-142.4 53.867-164.8 125.867 11.2-2.133 22.4-3.2 33.6-2.667 15.467 0.533 30.933 2.133 46.4 5.867-82.667 17.067-141.867 90.667-141.333 174.933v2.667c25.067-12.8 53.333-22.4 81.067-22.4-45.867 30.933-76.8 87.467-76.8 150.933 0.533 32 9.6 62.933 25.067 90.133 86.933-109.867 216.533-177.6 366.4-187.733-2.133 13.333-3.2 27.2-2.667 41.067-0.533 97.6 78.4 177.067 176 178.133 49.067-0.533 96-21.333 130.133-56.533 39.467 8.533 77.333 23.467 112 43.733-12.8-41.6-40-76.8-76.8-100.267 35.733 2.667 70.4 12.267 101.867 28.267-28.267-35.733-60.267-66.667-95.467-92.8z" />
<glyph unicode="&#xe912;" glyph-name="social-instagram" d="M768.533 657.6c0-26.133-21.333-46.933-46.933-46.933-26.133 0-46.933 21.333-46.933 46.933 0 26.133 21.333 46.933 46.933 46.933 0 0 0 0 0 0 26.133 0 46.933-20.8 46.933-46.933zM512 317.333c-72.533 0-130.667 58.667-130.667 130.667 0 72.533 58.667 130.667 130.667 130.667 72.533 0 130.667-58.667 130.667-130.667 0-34.667-13.867-68.267-38.4-92.8-24-24.533-57.6-37.867-92.267-37.867zM512 649.6c-111.467 0-201.6-90.133-201.6-201.6s90.133-201.6 201.6-201.6 201.6 90.133 201.6 201.6c0 111.467-90.133 201.6-201.6 201.6 0 0 0 0 0 0zM831.467 289.067c-0.533-25.067-4.8-49.6-13.333-73.067-13.333-34.133-40.533-61.333-74.667-74.667-23.467-8.533-48-13.333-73.067-13.333-41.6-2.133-53.867-2.133-158.933-2.133s-117.333 0.533-158.933 2.133c-25.067 0.533-49.6 4.8-73.067 13.333-34.133 13.333-61.333 40.533-74.667 74.667-8.533 23.467-13.333 48-13.333 73.067-2.133 41.6-2.133 53.867-2.133 158.933s0.533 117.333 2.133 158.933c0.533 25.067 4.8 49.6 13.333 73.067 13.333 34.133 40.533 61.333 74.667 74.667 23.467 8.533 48 13.333 73.067 13.333 41.6 2.133 53.867 2.133 158.933 2.133s117.333-0.533 158.933-2.133c25.067-0.533 49.6-4.8 73.067-13.333 34.133-13.333 61.333-40.533 74.667-74.667 8.533-23.467 13.333-48 13.333-73.067 2.133-41.6 2.133-53.867 2.133-158.933s0-117.333-2.133-158.933zM902.4 610.133c-0.533 32.533-6.933 65.067-18.133 95.467-20.267 52.8-61.867 94.4-114.667 114.667-30.4 11.2-62.933 17.6-95.467 18.133-42.133 2.133-55.467 2.133-162.133 2.133s-120-0.533-162.133-2.133c-32.533-0.533-65.067-6.933-95.467-18.133-52.8-20.267-94.4-61.867-114.667-114.667-11.2-30.4-17.6-62.933-18.133-95.467-2.133-42.133-2.133-55.467-2.133-162.133s0.533-120 2.133-162.133c0.533-32.533 6.933-65.067 18.133-95.467 20.267-52.8 61.867-94.4 114.667-114.667 30.4-11.2 62.933-17.6 95.467-18.133 42.133-2.133 55.467-2.133 162.133-2.133s120 0.533 162.133 2.133c32.533 0.533 65.067 6.933 95.467 18.133 52.8 20.267 94.4 61.867 114.667 114.667 11.2 30.4 17.6 62.933 18.133 95.467 2.133 42.133 2.133 55.467 2.133 162.133s0 120-2.133 162.133z" />
<glyph unicode="&#xe913;" glyph-name="social-facebook" d="M674.667 448h-106.667v-384h-160v384h-74.667v136h74.667v88c0 64 29.333 160 160 160h117.333v-130.667h-85.333c-13.333 0-32-8-32-37.333v-80h122.667l-16-136z" />
<glyph unicode="&#xe914;" glyph-name="social-youtube" d="M720.533 778.133v-223.467h-40.533v24.533c-16-18.667-30.933-27.733-45.867-27.733-13.867 0-22.4 5.333-26.133 16.533-2.667 11.2-4.267 22.4-3.733 33.6v176.533h40.533v-164.267c0-5.333 0-10.667 0.533-15.467 1.067-6.4 4.267-9.6 9.6-9.6 8 0 16.533 6.4 25.6 19.2v170.667h40zM557.867 757.867c8.533-11.2 12.8-28.267 12.8-52.267v-78.4c0-24-4.267-41.6-12.267-52.8-20.8-26.133-58.667-30.4-84.8-9.6-3.733 2.667-6.933 5.867-9.6 9.6-8.533 11.2-12.267 28.8-12.267 52.8v78.4c0 24 4.267 41.067 12.267 52.267 20.8 26.133 58.667 30.4 84.8 9.6 3.2-2.667 6.4-5.867 9.067-9.6v0zM530.133 713.6c0 20.8-6.4 30.933-19.2 30.933s-19.2-10.133-19.2-30.933v-93.867c0-20.8 6.4-31.467 19.2-31.467s19.2 10.667 19.2 31.467v93.867zM374.4 736.533l-32 117.867h-47.467c8.533-25.067 18.133-52.8 29.333-83.733s20.267-62.933 27.2-94.933v-121.067h44.8v121.067l53.867 178.667h-44.8l-30.933-117.867zM762.133 276.8h-40.533v20.8c0 20.267 6.933 30.4 20.267 30.4s20.267-10.133 20.267-30.4v-20.8zM851.733 283.2c0-69.867-3.733-122.133-11.733-156.8-3.733-17.067-12.8-32.533-26.133-44.267-12.8-11.733-28.8-18.667-45.867-20.8-54.933-6.4-137.6-9.6-248.533-9.6s-193.6 3.2-248.533 9.6c-17.067 1.6-33.067 9.067-45.867 20.8-13.333 11.733-21.867 27.2-25.6 44.267-8 33.6-11.733 85.867-11.733 156.8 0 69.867 3.733 122.133 11.733 156.8 3.733 17.067 12.8 32.533 26.133 44.267 12.8 11.733 28.8 19.2 45.867 20.8 54.4 5.867 137.067 9.067 248 9.067s193.6-3.2 248.533-9.067c35.2-4.267 64-30.4 71.467-65.6 8.533-33.067 12.267-84.8 12.267-156.267v0zM377.6 436.8h-139.2v-42.133h46.933v-254.4h44.8v254.4h48v42.133zM498.667 361.067h-40v-169.067c-9.067-12.8-17.6-18.667-25.6-18.667-5.333 0-8.533 3.2-9.6 9.6-0.533 5.333-0.533 10.667-0.533 15.467v162.667h-40v-174.933c-0.533-11.2 0.533-21.867 3.733-32.533 3.733-11.2 12.267-16.533 26.133-16.533 14.4 0 29.333 9.067 45.867 27.2v-24h40v220.8zM650.667 294.4c0 21.867-1.6 36.8-4.267 44.267-5.333 16.533-15.467 25.067-32 25.067-14.933 0-28.8-8-41.6-24v97.067h-39.467v-296.533h40v21.333c13.333-16.533 27.2-24.533 41.6-24.533 16 0 26.667 8 32 24.533 2.667 8 4.267 22.933 4.267 44.8l-0.533 88zM802.133 216.533h-40.533c0-9.067 0-18.133-1.067-27.2-2.133-10.667-8-16-18.133-16-13.867 0-20.8 10.133-20.8 30.933v38.933h80v45.867c0 23.467-4.267 41.067-12.267 51.733-21.333 26.133-59.733 30.4-85.867 9.067-3.2-2.667-6.4-5.867-9.067-9.067-8.533-11.2-12.267-28.267-12.267-51.733v-77.333c0-23.467 4.267-41.067 12.8-51.733 11.2-14.933 29.333-23.467 48.533-22.933 21.333 0 37.333 8 48.533 23.467 4.8 6.933 8 15.467 9.6 24 1.067 8.533 1.067 17.067 1.067 26.133l-0.533 5.867zM593.6 328c-8-0.533-14.933-4.267-20.267-10.133v-134.4c5.333-5.867 12.267-9.6 20.267-9.6 11.733 0 17.6 10.133 17.6 29.867v94.4c-0.533 19.733-5.867 29.867-17.6 29.867v0z" />
<glyph unicode="&#xe915;" glyph-name="alert" d="M921.067 198.4l-332.8 576c-21.333 35.733-48.533 53.867-76.267 53.867s-54.933-17.6-75.733-53.867l-333.333-576c-41.6-71.467-7.467-130.667 76.267-130.667h665.6c83.733 0 117.867 58.667 76.267 130.667zM564.267 602.133l-12.267-284.8h-78.4l-12.267 284.8h102.933zM550.4 193.067c-10.133-9.067-22.933-13.867-38.4-13.867s-28.267 4.8-38.4 13.867c-10.133 9.067-15.467 20.8-15.467 34.667s5.333 25.6 15.467 34.667c10.133 9.067 22.933 13.867 38.4 13.867s28.267-4.8 38.4-13.867c10.133-9.067 15.467-20.8 15.467-34.667-0.533-13.867-5.333-25.6-15.467-34.667z" />
<glyph unicode="&#xe916;" glyph-name="error-circle" d="M843.2 779.733c-182.933 182.4-479.467 181.867-661.867-1.6s-181.867-480 1.6-662.4 480-181.867 662.4 1.6c86.933 88 136 206.933 136 330.667 0 124.8-49.6 243.733-138.133 331.733zM584.533 725.333l-17.067-374.4h-108.8l-17.6 374.4h143.467zM565.333 188.8c-14.933-12.267-34.133-18.667-53.333-18.133-19.2-0.533-38.4 5.867-53.333 18.133-25.067 21.333-28.8 58.667-7.467 83.733 2.133 2.667 4.8 5.333 7.467 7.467 14.933 12.267 34.133 18.667 53.333 18.133 19.2 0.533 38.4-5.867 53.333-18.133 25.067-21.333 28.8-58.667 7.467-83.733-2.133-3.2-4.8-5.333-7.467-7.467z" />
<glyph unicode="&#xe917;" glyph-name="clock" d="M512 917.333c-259.205 0-469.333-210.128-469.333-469.333s210.128-469.333 469.333-469.333 469.333 210.128 469.333 469.333c-0.293 259.083-210.251 469.040-469.333 469.333zM690.283 253.291c-5.301-4.336-11.941-6.693-18.789-6.677-8.213-0.059-16.064 3.349-21.632 9.387l-111.259 121.488c-8.005-2.629-16.373-3.973-24.8-3.979-42.224 0-76.469 32.464-76.469 72.533 0.437 30.149 19.461 56.896 47.797 67.2v231.824c0.864 15.835 14.4 27.973 30.235 27.109 14.629-0.8 26.309-12.48 27.109-27.109v-231.877c28.336-10.304 47.36-37.051 47.797-67.2-0.011-11.493-2.891-22.805-8.384-32.901l111.243-121.483c9.856-10.587 9.269-27.157-1.317-37.019-0.491-0.459-1.003-0.901-1.531-1.317z" />
<glyph unicode="&#xe918;" glyph-name="info-circle" d="M440.533 702.4c-0.533-17.6 6.4-34.667 19.2-46.933 13.867-12.8 32.533-19.2 51.2-18.133 18.667-1.067 37.333 5.867 51.2 18.133 12.8 12.267 19.733 29.333 19.2 46.933 0.533 17.6-6.4 34.667-19.2 46.4-12.8 12.267-29.867 18.133-51.2 18.133-21.867 0-38.933-6.4-51.733-18.133-12.267-12.267-19.2-28.8-18.667-46.4zM448 109.867h125.867v470.933h-125.867v-470.933zM843.2 779.733c182.933-183.467 182.933-480 0-663.467s-480-182.933-663.467 0-182.933 480.533 0.533 663.467c43.2 43.733 94.933 78.4 152 101.867 175.467 73.067 377.067 32.533 510.933-101.867v0z" />
<glyph unicode="&#xe919;" glyph-name="check-circle" d="M512 960c-282.764 0-512-229.236-512-512s229.236-512 512-512 512 229.236 512 512c0 282.764-229.236 512-512 512 0 0 0 0 0 0zM796.509 538.764l-334.545-323.491c-23.273-22.109-59.927-21.527-82.036 1.164 0 0 0 0 0 0l-129.164 133.818c-22.691 22.691-22.109 59.927 0.582 82.036s59.927 22.109 82.036-0.582c0 0 0.582-0.582 0.582-0.582l89.018-91.927 293.236 282.764c23.273 22.109 59.927 21.527 82.036-1.164 21.527-22.691 20.945-59.345-1.745-82.036z" />
<glyph unicode="&#xe91a;" glyph-name="cross-circle" d="M843.733 779.733c-182.933 183.467-480.533 183.467-663.467 0s-183.467-480.533 0-664 480.533-183.467 664 0c87.467 88.533 137.067 208 137.067 332.267s-49.6 243.733-137.6 331.733zM692.8 327.467c16.533-16.533 16.533-43.733 0-60.267s-43.733-16.533-60.267 0l-120.533 120.533-120.533-120.533c-16.533-16.533-43.733-16.533-60.267 0s-16.533 43.733 0 60.267l120.533 120.533-120.533 120.533c-16.533 16.533-16.533 43.733 0.533 60.267 16.533 16.533 43.2 16.533 59.733 0l120.533-120.533 120.533 120.533c16.533 16.533 43.733 17.067 60.267 0.533s17.067-43.733 0.533-60.267c0 0 0 0-0.533-0.533l-120.533-120.533 120.533-120.533z" />
<glyph unicode="&#xe91b;" glyph-name="home" d="M512 853.333l-405.333-304v-506.667h273.6v131.733c0 72.533 59.2 131.733 131.733 131.733s131.733-59.2 131.733-131.733v-131.733h273.6v506.667l-405.333 304z" />
<glyph unicode="&#xe91c;" glyph-name="cart" d="M791.467 209.6c37.867-37.867 37.867-98.667 0-136.533s-98.667-37.867-136.533 0-37.867 98.667 0 136.533c18.133 18.133 42.667 28.267 68.267 28.267s50.133-10.133 68.267-28.267zM250.133 850.667h-167.467v-57.6h118.933l89.6-523.733h528.533v57.6h-480l-10.667 61.333h516.267l96 341.867h-670.4l-20.8 120.533zM357.867 237.867c-53.333 0-96-43.2-96-96.533s43.2-96 96.533-96c53.333 0 96 43.2 96 96 0 53.333-43.2 96.533-96.533 96.533z" />
<glyph unicode="&#xe91d;" glyph-name="baggage" d="M909.333 710.4c39.467 0 72-29.867 72-67.2v-522.667c0-37.333-32.533-67.2-72-67.2h-88.533v657.067h88.533zM203.2 710.4v-657.067h-88.533c-41.067 0-72 28.267-72 67.2v522.667c0 37.333 32.533 67.2 72 67.2h88.533zM407.467 710.4h209.6v66.667c-0.533 5.867-5.333 10.133-10.667 10.667h-189.867c-5.867-0.533-10.133-4.8-10.667-10.667l1.6-66.667zM353.067 710.4v88c0 24.533 25.067 44.267 61.333 44.267h195.2c36.267 0 61.333-17.6 61.333-44.267l1.6-88.533h94.4v-656.533h-509.333v657.067h95.467z" />
<glyph unicode="&#xe91e;" glyph-name="baggage-cabin" d="M418.133 860.8h190.4v-120.533h-190.4v120.533zM704.533 738.667h-59.2v159.467c-0.533 10.667-9.6 19.2-20.267 19.2h-224c-11.2 0-20.267-8.533-21.333-19.2v-159.467h-59.2c-41.6 0-75.2-34.133-75.2-75.2 0 0 0-0.533 0-0.533v-550.4c-0.533-41.6 33.067-75.733 74.133-76.267 0 0 0.533 0 0.533 0h14.4v-10.667c0-25.6 20.8-46.4 46.4-46.4s46.4 20.8 46.4 46.4v0c0 3.733 0 7.467-1.067 10.667h172.8c-1.067-3.733-1.6-6.933-1.067-10.667 0-25.6 20.8-46.4 46.4-46.4s46.4 20.8 46.4 46.4c0 3.733 0 7.467-1.067 10.667h14.4c41.6 0 75.2 34.133 75.2 75.2 0 0 0 0.533 0 0.533v550.933c1.6 40-29.333 74.133-69.333 75.733-2.133 0-3.733 0-5.333 0z" />
<glyph unicode="&#xe91f;" glyph-name="user" d="M277.333 682.667c0 129.6 105.067 234.667 234.667 234.667s234.667-105.067 234.667-234.667-105.067-234.667-234.667-234.667-234.667 105.067-234.667 234.667zM702.933 379.2h-382.4c-106.667 0-192.533-81.6-192.533-181.867v-218.667h768v218.133c-0.533 100.8-86.4 182.4-193.067 182.4z" />
<glyph unicode="&#xe920;" glyph-name="passenger" d="M510.4 917.333c72.533 0 130.133-61.333 130.133-134.933s-59.2-134.4-130.133-134.4-130.133 61.333-130.133 134.4 57.6 134.933 130.133 134.933zM192 524.8c0 77.867 75.2 77.867 75.2 77.867h489.6c0 0 75.733 3.2 75.733-77.867s-75.2-79.467-75.2-79.467h-75.2v-389.333c0 0 0-77.867-75.2-77.867s-75.2 77.867-75.2 77.867v234.133h-37.333v-231.467c0 0 0-77.867-75.2-77.867s-75.2 77.867-75.2 77.867v387.733h-74.667c0 0-77.333 0-77.333 78.4z" />
<glyph unicode="&#xe921;" glyph-name="edit" d="M174.4 274.133l-70.933-231.467 233.6 70.4-162.667 161.067zM888 821.867c-43.2 42.133-112 42.133-154.667 0l-45.867-45.867 154.667-154.133 45.867 45.867c42.667 41.6 43.2 109.333 2.133 152-0.533 0.533-1.067 1.067-2.133 2.133zM803.733 576l-421.333-417.6-162.133 161.6 421.333 417.6 162.133-161.6z" />
<glyph unicode="&#xe922;" glyph-name="phone" d="M448 664l-123.733-99.2c-44.8-35.733 224-360 257.6-335.467l125.333 90.667c11.2 8 24.533 10.667 34.133-2.133l164.8-206.4c8-9.067 7.467-23.467-2.133-31.467-0.533-0.533-1.6-1.067-2.133-1.6l-126.933-86.933c-179.2-123.2-811.2 667.733-630.4 820.8l111.467 94.933c11.2 9.6 26.667 17.067 38.4 1.067l157.333-212.8c7.467-10.133 5.867-24-3.733-31.467z" />
<glyph unicode="&#xe923;" glyph-name="eye" d="M512 293.867c85.333-1.6 155.733 66.667 156.8 152 1.6 85.333-66.667 155.733-152 156.8-85.333 1.6-155.733-66.667-156.8-152 0-1.067 0-1.6 0-2.667-0.533-84.8 67.2-153.6 152-154.133zM512 181.333c-172.8 0-329.067 89.067-469.333 266.667 140.267 177.6 296.533 266.667 469.333 266.667s329.067-89.067 469.333-266.667c-140.267-177.6-296.533-266.667-469.333-266.667z" />
<glyph unicode="&#xe924;" glyph-name="language" d="M644.267 99.2c25.6 53.333 43.733 110.4 54.4 168.533h138.133c-43.733-76.267-111.467-135.467-192.533-168.533zM187.2 267.733h138.133c10.667-58.133 29.333-115.2 54.4-168.533-81.067 33.067-148.8 92.267-192.533 168.533v0zM379.733 796.8c-25.6-53.333-43.733-110.4-54.4-168.533h-138.133c43.733 76.267 111.467 135.467 192.533 168.533v0zM524.267 820.8c20.267 0 68.8-67.2 96.533-192.533h-193.067c27.2 125.867 76.267 192.533 96.533 192.533v0zM139.2 435.733c0 32.533 4.267 65.067 12.267 96.533h156.267c-2.667-30.933-4.267-63.467-4.267-96.533s1.6-65.067 4.267-96.533h-156.267c-8 32-12.267 64.533-12.267 96.533v0zM408.533 339.733c-6.4 64-6.4 128.533 0 192.533h230.933c3.2-32 4.8-64 4.8-96.533 0-32-1.6-64.533-4.8-96.533l-230.933 0.533zM499.733 75.2c-20.267 0-68.8 67.2-96.533 192.533h192.533c-26.667-125.867-75.733-192.533-96-192.533v0zM885.333 435.733c0-32.533-4.267-65.067-12.267-96.533h-156.267c2.667 30.933 4.267 63.467 4.267 96.533s-1.6 65.067-4.267 96.533h156.267c7.467-31.467 11.733-64 12.267-96.533v0zM836.8 628.267h-138.133c-10.667 58.133-29.333 115.2-54.4 168.533 81.067-33.067 148.8-92.267 192.533-168.533v0zM512 917.333c-259.2 0-469.333-210.133-469.333-469.333s210.133-469.333 469.333-469.333 469.333 210.133 469.333 469.333-210.133 469.333-469.333 469.333z" />
<glyph unicode="&#xe925;" glyph-name="dollar-no" d="M512 917.333c-259.2 0-469.333-210.133-469.333-469.333s210.133-469.333 469.333-469.333 469.333 210.133 469.333 469.333-210.133 469.333-469.333 469.333zM820.267 220.267l-102.4 98.667-59.2-61.333 103.467-100.267c-160.533-138.667-402.667-121.067-541.333 39.467-121.067 140.267-124.8 346.667-9.067 490.667l112-108.267 59.2 61.333-110.933 106.667c165.333 132.267 406.933 105.6 539.2-59.733 109.333-134.933 113.067-327.467 9.067-467.2v0zM639.467 434.667c4.8-13.867 6.933-28.8 6.4-43.2 1.067-26.667-8-52.8-25.067-74.133-16.533-20.267-40.533-33.6-72-41.067v-61.867c-7.467-2.133-14.933-3.2-22.933-3.2s-16 1.067-23.467 3.2v56.533h-4.267c-11.733 0-22.4 0.533-31.467 1.067-17.6 1.067-34.667 4.267-51.2 9.6-8 2.667-16.533 5.333-25.6 9.067 1.067 10.667 3.2 20.8 5.867 31.467s6.4 21.333 10.133 32.533c13.333-5.867 27.733-9.6 42.133-12.8 13.867-2.133 28.267-3.733 42.133-3.2 22.4 0 40 3.733 52.267 11.2s18.133 19.733 18.667 37.333c0.533 7.467-1.6 14.4-5.333 20.8-3.2 5.333-7.467 10.133-12.8 13.867s-11.2 6.933-17.067 9.067c-6.4 2.667-12.8 5.333-18.667 8l-28.267 12.267c-11.2 4.8-21.867 9.6-32 15.467-9.067 5.333-17.6 11.733-24.533 19.733s-12.267 17.067-16 27.2c-4.267 12.267-5.867 25.067-5.333 37.867 0 32 9.067 57.067 27.2 75.733s43.2 29.867 75.2 33.6v56.533c7.467 2.133 14.933 3.2 22.933 3.2s16-1.067 23.467-3.2v-54.933c13.867-1.067 27.733-3.2 41.067-5.867 13.867-3.2 27.733-7.467 41.6-11.733-2.133-21.333-8-41.6-17.067-60.8-5.333 2.133-10.667 4.267-16.533 6.4s-11.733 3.733-17.6 5.333c-6.933 1.6-13.867 2.667-21.333 3.2-9.067 1.067-17.6 1.6-26.667 1.067-6.4 0-12.267-0.533-18.133-1.067s-11.733-2.667-16.533-5.333c-4.8-2.667-9.067-6.933-12.267-11.733-3.2-5.867-5.333-12.8-4.8-20.267 0-6.4 1.067-12.267 3.733-18.133 2.667-4.8 5.867-9.067 10.133-12.8s9.067-6.4 14.4-8.533c5.333-2.667 10.667-4.8 16-6.933l32-13.333c13.333-5.867 25.6-11.2 36.8-17.067 10.667-5.333 19.733-12.267 27.733-20.8 6.933-8.533 13.333-18.667 17.067-29.333z" />
<glyph unicode="&#xe926;" glyph-name="document" d="M291.2 187.2c-11.2 0-20.267-9.067-20.267-20.267s9.067-20.267 20.267-20.267h441.6c11.2 0 20.267 9.067 20.267 20.267s-9.067 20.267-20.267 20.267h-441.6zM291.2 307.2c-11.2 0-19.733-9.067-19.733-20.267 0-10.667 9.067-19.733 19.733-19.733h441.6c11.2 0 19.733 9.067 19.733 20.267 0 10.667-9.067 19.733-19.733 19.733h-441.6zM291.2 427.733c-11.2 0-19.733-9.067-19.733-20.267 0-10.667 9.067-19.733 19.733-19.733h441.6c11.2 0 19.733 9.067 19.733 20.267 0 10.667-9.067 19.733-19.733 19.733h-441.6zM291.2 548.267c-11.2 0-20.267-9.067-20.267-20.267s9.067-20.267 20.267-20.267h220.8c11.2 0 20.267 9.067 20.267 20.267s-9.067 20.267-20.267 20.267h-220.8zM190.933 889.6h642.667c11.2 0 20.267-9.067 20.267-20.267 0 0 0 0 0 0v-843.2c0-11.2-9.067-20.267-20.267-20.267h-642.667c-11.2 0-20.267 9.067-20.267 20.267v843.733c0 10.667 9.067 19.733 20.267 19.733z" />
<glyph unicode="&#xe927;" glyph-name="pin" d="M512 917.333c-200.533 0-362.667-157.867-362.667-352.533s362.667-586.133 362.667-586.133 362.667 391.467 362.667 586.133-162.133 352.533-362.667 352.533zM512 405.333c-94.4 0-170.667 76.267-170.667 170.667s76.267 170.667 170.667 170.667 170.667-76.267 170.667-170.667-76.267-170.667-170.667-170.667z" />
<glyph unicode="&#xe928;" glyph-name="info" d="M340.267 117.867c5.333 42.667 12.267 87.467 21.333 130.667 12.267 75.733 26.667 150.933 41.067 226.667 0 5.333 1.6 10.133 1.6 13.867 0 30.933-10.667 42.667-42.667 46.4-13.867 1.067-27.733 3.733-41.067 6.933-16 5.333-23.467 17.067-21.333 30.933s10.667 22.4 28.8 24c9.6 1.6 19.2 2.133 28.8 1.6h239.467c28.8 0 46.4-13.867 48-41.067-0.533-23.467-2.667-46.933-6.933-70.4-16-85.867-32-173.333-50.133-259.2-5.333-29.333-10.667-56.533-14.4-85.867-1.6-13.867-0.533-27.733 3.733-41.067 3.733-17.067 20.267-28.267 37.333-25.6 16 2.133 31.467 6.4 46.4 12.267 12.267 5.333 23.467 12.267 35.733 17.067 18.133 6.933 34.133-5.333 28.8-24-3.733-11.2-9.6-20.8-18.133-29.333-46.4-44.8-100.267-70.4-166.4-72-30.4-1.067-60.8 1.067-91.2 5.333-53.867 9.067-117.867 69.333-108.8 132.8zM507.733 917.333c69.867 0 125.333-54.933 125.333-122.133s-57.067-121.6-125.333-121.6c-69.867 0-126.933 54.933-126.933 123.733 2.133 66.667 57.6 120 126.933 120z" />
<glyph unicode="&#xe929;" glyph-name="search" d="M426.667 293.333c132.267 0 240 107.2 240 240 0 132.267-107.2 240-240 240s-240-107.2-240-240c0-132.267 107.2-240 240-240 0 0 0 0 0 0zM744 317.867l237.333-237.333-101.867-101.867-237.333 237.333c-175.467-118.933-413.867-73.6-533.333 101.867s-73.067 413.867 102.4 532.8 413.867 73.6 533.333-101.867c88-130.133 88-300.8-0.533-430.933z" />
<glyph unicode="&#xe92a;" glyph-name="seat-airplane" d="M704 374.933v0 0c-0.533 0-1.067 0-1.067 0-11.2 0-22.933-1.067-34.133-3.2l-175.467-16-53.867-1.6-2.133 6.933 36.267 34.667 322.667 27.733-2.667 14.933c-4.267 24.533-50.667 41.067-104 36.8v0h-0.533c-0.533 0-0.533 0-1.067 0-5.867-0.533-11.733-1.067-17.6-2.133l-256-32-69.333 250.667c52.267 45.867 51.733 132.267-0.533 193.067h-108.8c0 0-12.267-7.467-12.267-17.067v-171.733c0-9.6 5.333-17.067 12.267-17.067h1.067l62.933-227.733-11.733-2.133 59.2-214.933 12.267 2.667 11.733-42.133 7.467 1.6v-1.6h56.533c-14.4-21.333-22.4-46.933-22.4-72.533 0 0 0-0.533 0-0.533-0.533-28.267 10.667-56 29.867-76.8 1.067-1.067 2.133-2.667 2.667-4.267 0.533 0 1.6-0.533 2.133-1.067 13.867-12.8 30.4-22.4 48.533-27.733v-1.067h294.933v28.267h-281.6c-28.267 12.267-50.667 34.667-62.4 63.467l-2.133 17.6c4.267 29.867 19.2 56.533 42.667 75.2h312.533v124.267c0.533 29.867-42.133 54.933-96 55.467z" />
<glyph unicode="&#xe92b;" glyph-name="printer" d="M225.6 680h573.333v178.667h-573.333v-178.667zM981.333 532.8v-317.333c0-17.067-13.867-30.933-30.933-30.933h-151.467v-147.2h-573.333v147.733h-152c-17.067 0-30.933 13.867-30.933 30.933v316.8c0 57.6 46.933 104 104 104h730.133c57.6 0 104.533-46.4 104.533-104zM283.733 94.933h457.6v228.267h-457.6v-228.267zM912 523.2c0 24.533-19.733 44.267-44.267 44.267s-44.267-19.733-44.267-44.267c0-24.533 19.733-44.267 44.267-44.267 0 0 0 0 0 0 24-0.533 44.267 19.733 44.267 44.267z" />
<glyph unicode="&#xe92c;" glyph-name="seat-border" d="M867.2 204.8c12.8 0 23.467-13.867 23.467-30.933v-100.267c0-17.067-10.667-30.933-23.467-30.933h-710.4c-12.8 0-23.467 13.867-23.467 30.933v100.267c0 17.067 10.667 30.933 23.467 30.933h710.4zM161.067 177.6c-0.533-1.067-0.533-2.667-0.533-3.733v-100.267c0-1.067 0-2.667 0.533-3.733h701.333c0.533 1.067 0.533 2.667 0.533 3.733v100.267c0 1.067 0 2.667-0.533 3.733h-701.333zM268.8 853.333h486.4c74.667 0 134.933-60.267 134.933-134.933 0 0 0 0 0 0v-459.2c0-14.933-12.267-27.2-27.2-27.2h-702.4c-14.933 0-27.2 12.267-27.2 27.2v459.2c0.533 74.667 60.8 134.933 135.467 134.933v0zM268.8 826.133c-59.733 0-108.267-48.533-108.267-108.267 0 0 0 0 0 0v-459.2h702.4v459.733c0 59.733-48.533 108.267-108.267 108.267 0 0 0 0 0 0h-485.867z" />
<glyph unicode="&#xe92d;" glyph-name="seat-xl" d="M268.8 853.333h486.4c74.667 0 134.933-60.267 134.933-134.933v0-459.2c0-14.933-12.267-27.2-27.2-27.2v0h-702.4c-14.933 0-27.2 12.267-27.2 27.2v0 459.2c0 74.667 60.267 134.933 134.933 134.933 0 0 0.533 0 0.533 0zM268.8 826.133c-59.733 0-107.733-48-108.267-107.733v-459.2h702.933v459.2c-0.533 59.733-48.533 107.733-108.267 107.733h-486.4zM156.8 204.8c-12.8 0-23.467-13.867-23.467-30.933v-100.267c0-17.067 10.667-30.933 23.467-30.933h710.4c12.8 0 23.467 13.867 23.467 30.933v100.267c0 17.067-10.667 30.933-23.467 30.933h-710.4z" />
<glyph unicode="&#xe92e;" glyph-name="seat-filled" d="M867.2 204.8c12.8 0 23.467-13.867 23.467-30.933v-100.267c0-17.067-10.667-30.933-23.467-30.933h-710.4c-12.8 0-23.467 13.867-23.467 30.933v100.267c0 17.067 10.667 30.933 23.467 30.933h710.4zM268.8 853.333h486.4c74.667 0 134.933-60.267 134.933-134.933v0-459.2c0-14.933-12.267-27.2-27.2-27.2v0h-702.4c-14.933 0-27.2 12.267-27.2 27.2v0 459.2c0 74.667 60.267 134.933 134.933 134.933 0 0 0.533 0 0.533 0z" />
<glyph unicode="&#xe92f;" glyph-name="seat-cross" d="M867.2 204.8c12.8 0 23.467-13.867 23.467-30.933v-100.267c0-17.067-10.667-30.933-23.467-30.933h-710.4c-12.8 0-23.467 13.867-23.467 30.933v100.267c0 17.067 10.667 30.933 23.467 30.933h710.4zM161.067 177.6c-0.533-1.067-0.533-2.667-0.533-3.733v-100.267c0-1.067 0-2.667 0.533-3.733h701.333c0.533 1.067 0.533 2.667 0.533 3.733v100.267c0 1.067 0 2.667-0.533 3.733h-701.333zM268.8 853.333h486.4c74.667 0 134.933-60.267 134.933-134.933 0 0 0 0 0 0v-459.2c0-14.933-12.267-27.2-27.2-27.2h-702.4c-14.933 0-27.2 12.267-27.2 27.2v459.2c0.533 74.667 60.8 134.933 135.467 134.933v0zM268.8 826.133c-59.733 0-108.267-48.533-108.267-108.267 0 0 0 0 0 0v-459.2h702.4v459.733c0 59.733-48.533 108.267-108.267 108.267 0 0 0 0 0 0h-485.867zM694.933 650.133c9.067 9.6 9.067 24.533-0.533 33.6-9.067 9.067-24 9.067-33.067 0l-135.467-134.933-134.933 135.467c-9.6 9.6-24.533 9.6-33.6 0-9.6-9.6-9.6-24.533 0-33.6l135.467-135.467-135.467-135.467c-9.067-9.6-9.067-24.533 0.533-33.6 9.067-9.067 24-9.067 33.6 0l135.467 135.467 135.467-135.467c9.6-9.6 24.533-9.6 33.6 0s9.6 24.533 0 33.6l-136 135.467 134.933 134.933z" />
<glyph unicode="&#xe930;" glyph-name="baggage-extra" d="M642.667 868.267v-104h167.467v104h-167.467zM490.667 448v249.6c0 36.267 29.333 65.6 65.6 65.6 0 0 0.533 0 0.533 0h52.267v137.6c1.067 9.6 9.067 16.533 18.667 16.533h196.8c9.6 0 17.6-6.933 17.6-16.533v-137.6h52.267c36.8 0 67.2-29.333 65.067-65.6v-475.2c0-36.267-29.333-65.6-65.6-65.6 0 0-0.533 0-0.533 0h-12.8c1.067-3.2 1.067-6.4 1.067-9.6 0-22.4-18.133-41.067-41.067-41.067-22.4 0-40.533 18.133-41.067 41.067 0 3.2 0 6.4 1.067 9.6h-96.533v227.2c0 38.4-24.533 64-62.4 64h-150.933zM615.467 404.8c24.533 0.533 45.333-18.667 45.867-43.733v-339.2c-0.533-24.533-21.333-44.267-45.867-43.733h-56.533v426.133h56.533zM166.4 404.8v-426.133h-56.533c-26.667 0-45.867 18.133-45.867 43.733v339.2c0.533 24.533 21.333 44.267 45.867 43.733l56.533-0.533zM296 404.8h133.333v43.733c0 3.733-3.2 6.4-6.933 6.933h-120.533c-3.733 0-6.4-3.2-6.933-6.933l1.067-43.733zM261.333 404.8v57.067c0 16 16 28.8 38.933 28.8h124.267c22.933 0 38.933-11.2 38.933-28.8l1.067-57.067h59.733v-426.133h-323.733v426.133h60.8z" />
<glyph unicode="&#xe931;" glyph-name="baggage-extra-h" d="M234.133 550.933h13.867v-12.267h516.8v12.267h13.867v-12.267h149.333v20.267c0 25.6-20.8 46.4-46.4 46.4h-739.2c-25.6 0-46.4-20.8-46.4-46.4v0-20.267h138.133v12.267zM741.867 584h58.133v-27.733h-58.133v27.733zM211.2 584h58.133v-27.733h-58.133v27.733zM821.333 212.267h-58.133v27.733h58.133v-27.733zM290.667 212.267h-58.133v27.733h58.133v-27.733zM928.533 296.533h-833.067c-28.8 0-52.8-23.467-52.8-52.8v-38.933h938.667v38.933c0 29.333-23.467 52.8-52.8 52.8v0zM142.4 324.267h739.2c25.6 0 46.4 20.8 46.4 46.4v154.133h-149.333v-25.6h-13.867v25.6h-516.8v-25.6h-13.867v25.6h-138.133v-154.133c0-25.6 20.8-46.4 46.4-46.4zM395.733 462.4c0 3.2 1.067 5.333 2.133 5.333h33.6c1.067 0 2.133-2.667 2.133-5.333v-22.4c0-3.2-1.067-5.333-2.133-5.333h-6.4v-29.867h147.733v29.867h-6.4c-1.067 0-2.133 2.667-2.133 5.333v22.4c0 3.2 1.067 5.333 2.133 5.333h33.6c1.067 0 2.133-2.667 2.133-5.333v-22.4c0-3.2-1.067-5.333-2.133-5.333h-6.4v-40c0-5.867-4.267-10.133-10.133-10.667 0 0 0 0 0 0h-168.533c-5.867 0-10.133 4.8-10.133 10.667v40h-6.4c-1.6 0-2.133 2.667-2.133 5.333l-0.533 22.4zM640.533 42.667c0-2.133-2.133-4.267-4.267-4.267s-4.267 2.133-4.267 4.267c0 2.133 2.133 4.267 4.267 4.267v0c2.133 0 4.267-2.133 4.267-4.267zM42.667 191.467v-159.467c0-28.8 23.467-52.8 52.8-52.8h833.6c28.8 0 52.8 23.467 52.8 52.8v159.467h-939.2zM290.667 155.2h-58.133v27.733h58.133v-27.733zM614.933 64.533v0c0-5.333-4.267-10.133-10.133-10.133 0 0 0 0-0.533 0h-168.533c-5.867 0-10.133 4.8-10.133 10.133 0 0 0 0 0 0v40.533h-6.4c-1.6 0-2.133 2.667-2.133 5.333v22.4c0 3.2 1.067 5.333 2.133 5.333h33.6c1.067 0 2.133-2.667 2.133-5.333v-22.4c0-3.2-1.067-5.333-2.133-5.333h-6.4v-29.867h147.733v29.867h-6.4c-1.067 0-2.133 2.667-2.133 5.333v22.4c0 3.2 1.067 5.333 2.133 5.333h33.6c1.067 0 2.133-2.667 2.133-5.333v-22.4c0-3.2-1.067-5.333-2.133-5.333h-6.4v-40.533zM618.133 63.467c1.6 1.067 3.733 1.067 4.8-0.533l5.333-6.4c1.067-1.6 1.067-3.733-0.533-4.8-0.533-0.533-1.6-0.533-2.133-0.533-1.067 0-2.133 0.533-2.667 1.067l-5.333 6.4c-1.067 1.6-1.067 3.733 0.533 4.8v0zM690.133-2.667l-19.733-16c-2.133-2.133-5.333-2.133-7.467-0.533l-44.8 54.4c-1.6 2.667-0.533 5.867 2.133 7.467l19.733 16c2.133 2.133 5.333 2.667 7.467 0.533l44.8-54.4c1.6-2.667 0.533-5.867-2.133-7.467v0zM821.333 155.2h-58.133v27.733h58.133v-27.733z" />
<glyph unicode="&#xe932;" glyph-name="seat-airplane-window" d="M754.133 288.533v-124.8h-321.6c-24-18.667-40-45.867-43.733-75.733l2.133-17.6c12.267-28.8 35.2-51.733 64-63.467h290.133v-28.267h-303.467v1.067c-18.667 5.333-35.733 14.933-49.6 28.267-0.533 0.533-1.6 0.533-2.133 1.067-1.067 1.6-2.133 2.667-3.2 4.267-20.267 20.8-31.467 48.533-30.933 77.333 0 0 0 0.533 0 0.533 0 26.133 8 51.733 22.933 73.067h-58.667v1.067l-7.467-1.6-11.733 42.133-12.8-2.667-61.333 216.533 12.8 2.667-64.533 229.333h-1.6c-6.933 0-12.8 7.467-12.8 17.067v172.267c0 9.6 12.8 17.067 12.8 17.067h113.067c53.867-61.333 53.867-148.267 0.533-194.133l71.467-252.267 263.467 32c5.867 1.067 11.733 1.6 18.133 2.133 0.533 0 0.533 0 1.067 0h0.533c54.933 4.267 102.4-12.267 106.667-37.333l2.667-15.467-332.267-28.267-37.333-35.2 2.133-6.933 55.467 1.6 179.733 17.067c11.733 2.133 23.467 3.2 35.2 3.2 0.533 0 0.533 0 1.067 0h0.533c54.933-0.533 99.2-25.6 98.667-56zM863.467 804.8v-104c0-59.2-51.2-107.733-114.133-107.733h-9.6c-62.933 0-114.133 48.533-114.133 107.733v104c0 61.867 53.867 112.533 118.933 112.533 66.133 0 119.467-50.667 118.933-112.533v0zM695.467 763.733c-0.533-4.8 3.2-9.6 8-10.133 0.533 0 0.533 0 1.067 0h82.133c4.8 0 9.067 4.267 9.067 9.067 0 0.533 0 0.533 0 1.067 0.533 4.8-3.2 9.6-8 10.133-0.533 0-0.533 0-1.067 0h-82.133c-4.8 0-9.067-4.267-9.067-9.067 0 0 0-0.533 0-1.067v0zM843.2 711.467c-0.533-0.533-1.067-0.533-1.6-0.533h-191.467c-0.533 0-1.067 0.533-1.6 0.533v-8.533c0.533-50.667 42.133-91.2 92.8-90.667h9.067c50.667-0.533 91.733 40 92.8 90.667h0.533l-0.533 8.533z" />
<glyph unicode="&#xe933;" glyph-name="fish" d="M968.533 286.933c-10.667 16-3.733 5.333-34.133 44.8-4.8-28.8-5.333-58.133-0.533-86.933 5.333 11.2 12.267 21.867 20.8 31.467 14.4-18.133 11.2-44.8-7.467-59.2-8.533-6.933-19.733-10.133-30.4-8.533-26.133 3.2-29.333 20.8-57.6 52.8 5.867 9.067 4.8 20.8-2.133 28.8-4.8 6.4-12.8 10.133-20.8 9.6-17.6 36.8 3.2 76.267 34.133 124.8 7.467 11.733 14.4 22.933 19.733 33.067 18.133 34.133 28.267 71.467 29.867 109.867 2.667 104.533-57.067 178.667-83.2 205.867l10.133 10.133c13.867 14.4 13.867 37.333 0 51.733l-12.267 12.267c-14.4 13.867-36.8 13.867-51.2 0l-56-56.533-188.8-189.867 52.8-53.333-20.8-21.333-52.8 53.333-84.267-84.8 62.933-63.467 80 81.067c8.533-36.267-3.733-120-40-166.4-29.333 19.2-68.267 14.933-92.8-10.133l-21.333 21.333 52.8 53.333-62.933 64-179.2-180.8-10.667 10.667-168-169.067c-16.533-16.533-16.533-43.2 0-59.733l25.067-25.067c16-16.533 42.667-16.533 58.667-0.533 0 0 0 0 0.533 0.533l168.533 168-10.667 10.667 42.133 42.667 21.333-21.333c-28.8-29.333-28.8-76.8 0-106.133s75.733-29.333 104.533-0.533c0 0 0.533 0.533 0.533 0.533l21.867 21.867 17.6-25.067-9.6-7.467c-4.8-3.733-5.867-10.667-2.133-16v0c3.733-4.8 10.667-5.867 15.467-1.6l41.067 32.533c4.8 3.733 5.867 10.667 2.133 16v0c-3.733 4.8-10.667 5.867-15.467 1.6 0 0 0 0 0 0l-8-6.4-19.733 28.267 41.067 41.6c25.067 25.6 28.8 65.067 9.067 94.933 37.333 46.4 57.6 131.2 49.6 185.067 3.733-0.533 6.933-1.067 10.667-1.067 10.667 0 21.333 1.6 32 4.8 30.4 8.533 61.867 28.8 89.067 56s46.933 59.2 55.467 89.6c7.467 26.667 5.867 50.667-4.267 68.267l26.133 26.133c22.933-24.533 76.8-91.733 74.667-184-1.6-34.133-10.667-67.2-26.667-97.067-4.8-9.067-11.2-19.733-18.133-30.933-26.133-41.6-63.467-100.8-34.667-156.8-3.733-9.6-2.133-24.533 1.067-28.267 7.467-8.533 19.2-11.733 29.867-8 29.333-35.733 36.8-54.933 69.333-58.133 55.467-6.933 88.533 55.467 56 96.533zM117.867 70.933c-4.8-4.8-12.267-4.8-17.067 0l-25.067 25.067c-4.8 4.8-4.8 12.267 0 17.067l147.2 148.267 42.133-42.667-147.2-147.733zM390.933 324.8l10.667 10.667 21.333-21.333-20.8-21.333-21.333-21.333-20.8 21.333 30.933 32zM528 250.667l-37.333-37.867-20.267 29.333c-4.8 6.933-13.867 8.533-20.8 3.733 0 0 0 0 0 0-6.933-4.8-8.533-13.867-3.733-20.8l23.467-34.133-25.6-25.6c-17.067-17.6-45.333-17.6-62.933-0.533 0 0 0 0-0.533 0.533-17.6 17.6-17.6 45.867 0 63.467l84.267 84.8c17.067 17.6 45.333 17.6 62.933 0.533 0 0 0 0 0.533-0.533 17.6-17.067 17.6-45.333 0-62.933zM765.333 667.2c-9.6-29.333-25.6-55.467-48-76.8-23.467-24-50.667-41.067-76.267-48-11.733-3.733-24.533-4.267-36.267-1.6l162.133 163.2c3.2-12.267 2.667-25.067-1.6-36.8v0zM826.133 805.867l-56-56.533-21.333 21.333 56.533 56.533c2.667 2.667 6.4 2.667 9.067 0 0 0 0 0 0 0l12.267-12.267c2.133-2.133 2.133-6.4-0.533-9.067v0z" />
<glyph unicode="&#xe934;" glyph-name="fish-large" d="M689.067 433.6c-9.6 14.4-3.2 4.8-30.933 40.533-4.267-25.6-4.267-52.267-0.533-77.867 4.8 10.133 11.2 19.733 18.667 28.267 12.8-16.533 10.133-40-6.4-53.333-8-6.4-17.6-9.067-27.733-8-23.467 2.667-26.133 19.2-51.733 48 4.8 8 4.267 18.667-1.6 26.133s-16 10.667-25.067 8c-258.667 471.467-242.667 448-261.333 461.333-9.067 5.867-19.2 9.6-29.867 10.667-5.867 0.533-11.2 0-17.067-1.067l-0.533-17.067-14.933-133.867c-18.133-163.2-25.6-235.733-35.733-312.533-58.667-1.6-106.667-46.4-112.533-104.533-5.867-50.667 21.867-99.2 68.267-119.467l-39.467-239.467 96-10.667 14.4 241.6c34.133 7.467 63.467 29.867 79.467 60.8l57.6-21.333-12.267-37.867c-1.6-8 1.067-17.067 9.067-18.133 7.467-1.6 14.933 2.133 18.133 9.067l16 50.133 1.067 2.133 16 50.133c3.2 6.4 0.533 14.4-5.867 17.067-1.067 0.533-2.133 0.533-3.2 1.067-7.467 1.6-14.933-2.133-18.133-9.067l-11.733-37.867-55.467 22.933c12.267 52.8-13.867 106.667-62.4 130.667 45.333 28.267 56 103.467 18.133 142.4l29.333-3.2 1.067 15.467-29.867 4.8c44.8 29.867 51.733 104 14.4 142.933l31.467-4.267 1.067 15.467-29.333 3.2c28.267 21.333 39.467 60.8 37.867 79.467l212.8-403.2c-4.8-8-4.267-18.667 1.6-26.133 6.4-8 17.067-10.667 26.667-7.467 26.133-32.533 33.067-49.6 62.4-52.267 52.8-6.933 82.133 49.067 52.267 86.4zM283.2 357.333c3.733-10.667 4.267-22.4 2.133-33.6l-68.267 26.133c-7.467 2.667-16-1.6-18.133-9.067-2.667-7.467 1.6-15.467 9.067-18.133l70.4-27.2c-10.133-18.133-26.667-30.933-46.933-36.267-41.6-11.733-85.333 12.267-97.067 53.867s12.267 85.333 53.867 97.067c40 12.8 83.2-10.667 94.933-52.8zM237.867 448.533l14.933 133.867c49.6-25.6 37.867-118.4-14.933-133.867zM300.8 668.267c-2.667-30.933-21.867-56-46.4-62.933l14.933 133.867c21.867-10.667 35.733-39.467 31.467-70.933zM271.467 762.667l14.933 133.867c51.733-27.2 38.4-120.533-14.933-133.867v0zM847.467 591.467c36.8-81.6-11.733-182.933-74.133-250.133l5.333-99.2c-19.733-1.067-28.8 36.8-44.8 43.733-16.533 9.6-40-11.733-50.667 5.867l82.133 53.333c16.533 46.933 37.333 138.667 8 177.6-47.467-37.867-30.933-76.267-30.933-76.267-50.133 45.333-32 97.067-23.467 118.4-13.333 4.8-48.533 8.533-63.467 8.533 40 80.533 43.2 132.267 40.533 161.067 27.2-14.933 36.8-13.333 76.8-42.667 50.667 21.333 103.467 15.467 160-35.733-51.733-2.667-80.533-21.867-85.333-64.533zM516.267 658.133l118.4-81.6c47.467 96.533 43.2 147.2 40 165.867-46.4-3.2-109.867-21.867-176.533-50.667l60.267-18.667-42.133-14.933zM611.2 709.333c9.067 1.6 18.133-4.8 19.2-13.867 1.6-9.067-4.8-18.133-13.867-19.2-9.067-1.6-17.6 4.8-19.2 13.867 1.067 9.6 6.933 18.133 13.867 19.2z" />
<glyph unicode="&#xe935;" glyph-name="golf" d="M700.267 466.667h-17.6v112.533h17.6c5.867-0.533 10.133-5.333 10.667-11.2v-90.133c0 0 0 0 0 0 0-5.867-4.8-11.2-10.667-11.2zM741.867 59.2l-6.4-0.533v232h28.267c-4.8 13.867-18.667 20.8-34.667 20.8h-48.533v129.067h13.867c0.533 0 0.533 0 1.067 0 20.267 0 36.267 16.533 36.267 36.8v89.6c-0.533 19.733-17.067 35.2-36.8 34.667h-16.533c-2.667 13.333-10.667 25.067-22.933 32l-55.467-1.6 22.933 83.2c15.467-7.467 43.2-20.8 50.667-19.733 0 0 0.533 0 0.533 0 20.267-2.667 38.4 3.2 46.4 17.6 11.733 20.8-3.2 50.667-32.533 66.667-28.8 16-61.333 12.267-73.6-7.467-1.067-1.067-1.6-2.667-2.133-4.267l-1.067-4.267-8-27.2c-0.533-0.533-0.533-1.6-0.533-2.133l-30.933-105.067-22.4-4.267-6.4-1.6-53.867 199.467c21.867 1.6 60.267 4.8 68.267 10.667 11.2 8.533 20.8 58.667 20.8 58.667-2.133 8.533-11.2 13.333-19.733 11.2l-104-10.133c0 0 0 0 0 0-8.533-2.133-13.867-10.667-11.733-19.2l10.667-40.533c0.533-1.067 0.533-1.6 1.067-2.667l54.4-214.933-34.667-8-73.067 253.867c0 0.533-0.533 1.6-0.533 2.133l-8 27.2-1.067 4.267c0 1.6-1.067 3.2-2.133 4.267-11.733 20.267-44.267 23.467-73.6 7.467s-44.267-45.867-32.533-66.667c8-14.4 26.133-20.267 46.4-17.6 0 0 0.533 0 0.533 0 7.467-1.067 35.2 11.733 50.667 19.733l64.533-241.6-24.533-5.333-38.4 120c0 1.067-0.533 1.6-0.533 2.667l-11.733 37.867c-0.533 1.067-0.533 2.133-1.067 2.667-3.2 5.867-10.667 8.533-17.067 5.333l-81.6-54.933c-7.467-3.733-11.2-12.8-9.067-20.8 0 0 31.467-33.067 43.733-32.533 9.067 0 38.933 20.8 56 33.067l30.4-100.8c-23.467-1.067-43.2-18.133-46.933-41.067v-10.133l-23.467-13.333c-11.2-6.933-15.467-20.8-10.133-32.533-33.067-42.667-54.933-114.667-54.933-196.267 0-77.333 19.733-146.133 50.133-189.333-6.4-10.667-4.267-24.533 5.333-32.533l31.467-26.133v-15.467c0-0.533 0-1.067 0-1.6 0.533-28.8 24.533-51.733 53.333-51.2h232.533c0.533 0 1.067 0 1.6 0 28.8 0.533 52.267 24 51.733 52.8v9.067h48.533c16 0 29.867 4.8 34.667 18.667h-23.467zM767.467 281.6h-20.267v-212.267h20.267v212.267zM345.067 478.4l-2.133-365.867c-6.4 4.8-14.933 5.867-22.933 3.733-27.2 36.267-45.867 103.467-45.867 180.267 0 78.933 19.2 147.733 48 182.933 6.933-3.733 15.467-4.267 22.933-1.067z" />
<glyph unicode="&#xe936;" glyph-name="dive" d="M421.867 812.267h-16c-4.8 9.6-11.2 17.6-20.8 17.6h-173.333c-8 0-16-8-19.2-17.6h-17.6c-38.933 0-69.867-38.4-77.333-75.2v176.533h-54.933v-320c1.6-68.267 39.467-109.333 85.333-128.533 18.667-7.467 38.4-11.2 58.667-11.2 19.733 0 38.933 4.267 57.067 12.8 39.467 16 70.933 47.467 78.933 94.933h2.667c13.867-1.067 26.133 10.133 26.667 24 0 0.533 0 1.067 0 1.6 0 14.933-11.733 26.667-26.133 27.2 0 0-0.533 0-0.533 0h-62.933c-14.933-0.533-26.667-12.267-26.667-27.2 0.533-14.4 12.267-25.6 26.667-25.6h3.2c-5.867-21.867-21.867-39.467-42.667-47.467-11.733-4.267-24-6.4-36.267-6.4-12.267-1.067-25.067 1.067-36.267 6.4-28.267 11.2-50.667 36.267-52.267 79.467v92.8c6.4-34.667 26.133-64.533 62.933-77.333 34.667-12.8 80.533-6.4 105.6 20.8 6.4 8 25.067 41.067 31.467 41.067 8 0 26.667-33.067 33.067-41.067 23.467-27.2 69.333-33.067 104.533-20.8 50.667 17.6 69.333 66.667 64.533 117.333-2.667 40-34.133 85.867-78.4 85.867zM433.067 618.667c-29.867-9.6-70.933-4.8-93.333 19.2-12.8 12.8-25.067 44.267-41.067 44.267s-28.267-31.467-41.067-44.267c-20.8-24-62.933-28.8-91.733-19.2-47.467 16-61.867 60.267-58.667 106.133 3.2 34.667 31.467 76.267 67.733 76.267h246.4c37.867 0 66.133-41.067 67.733-76.267 3.733-45.867-10.133-90.133-56-106.133zM475.733 723.2c8-107.733-94.933-109.333-126.4-76.267-16 19.2-23.467 49.067-50.667 49.067s-33.067-29.867-50.667-49.067c-31.467-33.067-134.4-31.467-126.4 76.267 3.2 33.067 28.267 63.467 53.867 63.467h246.4c25.067 0 52.267-29.867 53.867-63.467v0zM938.667 531.2l0.533 0.533c-1.067 116.8-27.733 201.6-78.933 250.667-45.333 43.2-93.333 42.133-94.933 41.6h-81.067v29.333c0 6.4-4.8 11.2-11.2 11.2s-11.733-4.8-11.733-11.2v-29.333h-60.8c-6.4 0-11.2-4.8-11.2-11.2s4.8-11.2 11.2-11.2c0 0 0 0 0 0h60.8v-72c-78.4-5.867-139.2-70.933-139.2-149.333v-497.067c0-55.467 45.333-100.8 100.8-100.8h99.2c55.467 0 100.8 44.8 100.8 100.8v497.067c0 78.4-60.8 144-139.2 149.333v72h81.067c29.867-1.6 58.133-14.4 78.933-35.733 46.4-44.267 70.933-125.333 72-234.667-29.333-6.4-48-34.667-41.6-64s34.667-48 64-41.6 48 34.667 41.6 64c-4.267 20.8-20.267 37.333-41.067 41.6v0zM699.733 379.2c17.067 0 30.933-13.867 30.933-30.933s-13.867-30.933-30.933-30.933h-53.867c-17.067 0-30.933 13.867-30.933 30.933s13.867 30.933 30.933 30.933v0h53.867zM950.4 456.533c-5.867-5.867-13.867-9.6-22.4-9.6v0c-17.6 0-31.467 14.4-30.933 31.467s14.4 31.467 31.467 30.933c17.6 0 31.467-14.4 30.933-31.467 0-7.467-3.2-15.467-9.067-21.333z" />
<glyph unicode="&#xe937;" glyph-name="surf" d="M277.333 8h120c-27.733 70.933-46.4 190.933-18.133 389.333 55.467 387.2 232.533 520 232.533 520s132.8-177.067 77.333-564.267c-25.067-174.933-68.267-281.067-109.867-345.067h167.467c8 0 14.933-6.4 14.933-14.933s-6.4-14.933-14.933-14.933h-469.333c-8 0-14.933 6.4-14.933 14.933s6.933 14.933 14.933 14.933zM427.2 5.333c74.133 18.667 154.667 257.6 96.533 497.067-40 164.267 60.267 229.333 134.933 205.333-2.133 10.667-4.267 21.333-6.933 32-49.067 9.067-99.2-10.667-130.133-50.133-43.2-54.4-42.133-129.6-26.667-194.133 26.133-106.133 26.133-228.267-2.667-333.867-9.067-34.133-23.467-73.6-44.267-102.4-4.267-5.867-18.667-23.467-28.267-25.067 3.2-8.533 6.4-17.067 9.6-25.6l-2.133-3.2zM673.067 546.133c-10.133 6.4-21.867 10.133-34.133 11.733-77.333 11.2-117.867-113.067-27.733-193.6 22.933-20.8 33.6-49.067 36.267-80.533 4.267 23.467 8 45.867 11.2 67.2l-1.067 1.6c-6.933 12.8-16 24-27.2 33.6-24.533 21.867-42.133 52.8-41.6 86.4 0 19.2 7.467 43.733 25.6 53.333 6.4 3.2 13.333 4.267 20.267 3.2 18.133-2.667 31.467-9.6 37.867-26.133 0.533 13.867 1.067 28.8 0.533 43.2z" />
<glyph unicode="&#xe938;" glyph-name="wheelchair" d="M885.333 100.8l-47.467 241.067c-5.333 28.8-30.933 50.133-60.267 50.133h-193.6l-45.333 230.4c0 0 0 0.533 0 0.533-10.133 51.2-60.267 84.8-111.467 74.667l-209.6-42.667c-20.267-4.267-36.267-20.267-40.533-40.533l-37.867-173.333c-6.4-28.267 11.2-56.533 39.467-62.933 0.533 0 0.533 0 1.067 0 28.267-5.867 55.467 12.267 61.333 40.533l30.4 139.2 83.2 17.067 45.333-230.933c8.533-44.8 47.467-76.8 92.8-77.333h234.133l37.333-190.4c5.333-28.8 30.933-50.133 60.267-50.133 4.267 0 8.533 0 12.267 1.067 33.6 6.933 55.467 40 48.533 73.6zM436.267 727.467c49.6 0 90.133 42.667 90.133 94.933s-40.533 94.933-90.133 94.933c-49.6 0-90.133-42.667-90.133-94.933s40.533-94.933 90.133-94.933zM459.733 35.2v0c-66.133-0.533-128 34.133-162.133 90.667-53.333 89.067-25.067 204.8 64 258.667l-11.733 58.667c-83.733-41.6-136.533-127.467-136-221.333 0.533-136 111.467-245.867 247.467-245.333s245.867 111.467 245.333 247.467h-57.067c-0.533-104.533-85.333-188.8-189.867-188.8z" />
</font>
</defs>
</svg>
